<svg width="85" height="85" viewBox="0 0 85 85" fill="none" xmlns="http://www.w3.org/2000/svg">
<path d="M19.8887 5.69437C18.7266 6.39164 18.6934 6.52445 18.5938 10.044L18.5107 13.1983L13.5303 13.2813L8.5498 13.3643L7.23828 13.9952C4.98047 15.0577 3.33691 17.1494 2.83887 19.5567C2.72266 20.1045 2.65625 22.6446 2.65625 26.2803C2.65625 32.8213 2.70605 33.0703 3.83496 33.8838C4.58203 34.4151 6.05957 34.4483 6.74023 33.9336C7.73633 33.2032 7.88574 32.8213 7.93555 30.8623L8.00195 29.0528H42.3506H76.6992V32.0577C76.6992 34.7969 76.7324 35.1289 77.0479 35.6768C77.5459 36.5567 78.127 36.9053 79.1895 36.9883C80.2021 37.0547 80.916 36.7061 81.5801 35.8096C81.9287 35.3448 81.9287 35.1953 81.9287 27.5088V19.6729L81.5303 18.5938C81.0986 17.3985 80.2852 16.087 79.5713 15.4063C78.9736 14.8418 77.3135 13.8291 76.5332 13.5801C76.168 13.4639 74.1094 13.3477 71.0547 13.2979L66.1572 13.1983L66.0742 10.127C65.9746 6.64066 65.875 6.29203 64.6963 5.64457C63.4844 4.96391 61.8076 5.44535 61.127 6.69047C60.8945 7.12211 60.8281 7.75297 60.7949 10.2432L60.7285 13.2813H52.876H45.0068L44.957 10.1436C44.9072 7.27152 44.874 6.95609 44.5586 6.54105C43.9775 5.76078 43.3965 5.42875 42.4668 5.34574C41.7363 5.29593 41.4873 5.34574 41.0225 5.67777C39.8105 6.50785 39.7607 6.64066 39.7109 10.1436L39.6611 13.2813H31.792H23.9395L23.8896 10.2432C23.8232 7.27152 23.8066 7.17191 23.375 6.52445C22.5947 5.32914 21.084 4.96391 19.8887 5.69437ZM18.5605 21.1172L18.6104 23.7403H13.2812H7.96875V22.1465C7.96875 19.9385 8.36719 19.1582 9.74512 18.6602C10.2266 18.4942 11.3389 18.4444 14.4434 18.4776L18.5107 18.5108L18.5605 21.1172ZM60.7617 21.084V23.7403H42.334H23.9062V21.084V18.4278H42.334H60.7617V21.084ZM75.3711 18.8428C76.3174 19.3907 76.6992 20.3535 76.6992 22.1963V23.7403H71.3867H66.0742V21.2002C66.0742 19.7891 66.124 18.5938 66.1904 18.5274C66.2568 18.461 68.2324 18.4278 70.5566 18.461C74.4414 18.5108 74.8398 18.544 75.3711 18.8428Z" fill="#95D5B2"/>
<path d="M55.0342 34.5479C46.6504 35.71 39.4453 41.2549 36.1914 49.0245C33.585 55.2666 33.834 62.7207 36.8555 68.7471C41.2051 77.3965 50.1201 82.4434 59.8984 81.8125C69.3945 81.1983 77.7119 74.7071 80.75 65.543C82.0449 61.6084 82.2441 56.711 81.2646 52.6934C79.0898 43.6455 72.0342 36.7725 62.9531 34.8633C61.0771 34.4649 56.8437 34.2989 55.0342 34.5479ZM61.293 39.9268C64.8125 40.5411 68.1826 42.2178 70.8057 44.6914C74.8896 48.5098 77.1641 54.5528 76.5498 59.9317C75.9521 64.9288 73.9102 68.8633 70.1914 72.1504C66.5059 75.3877 61.293 77.0479 56.4287 76.5498C48.8584 75.753 42.7324 70.7559 40.458 63.501C39.8271 61.5088 39.6113 59.6827 39.7275 57.292C40.0596 49.6553 45.0566 43.0479 52.3281 40.6075C55.0176 39.6944 58.5039 39.4288 61.293 39.9268Z" fill="#95D5B2"/>
<path d="M57.4414 45.0235C56.6777 45.2227 55.8145 46.0694 55.6152 46.8165C55.5156 47.1485 55.4492 49.7715 55.4492 52.876C55.4658 58.6036 55.5322 59.1846 56.2295 59.9649C56.5615 60.3301 65.3604 64.796 66.124 64.9786C66.8213 65.1446 67.834 64.796 68.4814 64.1651C69.4277 63.2022 69.4609 61.7247 68.5645 60.712C68.249 60.3467 66.9209 59.5997 64.4307 58.3546L60.7783 56.545L60.7285 51.5479C60.6787 46.6339 60.6787 46.5674 60.2969 46.0196C59.6494 45.1231 58.5205 44.7247 57.4414 45.0235Z" fill="#95D5B2"/>
<path d="M3.98438 40.043C3.68556 40.2588 3.27052 40.6406 3.0879 40.8896C2.73927 41.3545 2.73927 41.4375 2.68946 55.9141C2.63966 72.167 2.62306 71.9346 3.75196 73.8105C4.79786 75.5537 6.17579 76.6826 8.15138 77.3965L9.21388 77.7783H20.835H32.4561L33.0703 77.3965C33.8838 76.8818 34.4317 75.7529 34.3154 74.8398C34.2158 74.043 33.8174 73.4453 33.0371 72.9307L32.4893 72.5488H21.3496C10.8408 72.5488 10.1768 72.5156 9.52931 72.2334C9.14747 72.0674 8.66603 71.6689 8.4502 71.3701L8.05177 70.8057L7.96876 56.0801C7.88575 41.4707 7.88575 41.3545 7.53712 40.8896C6.95606 40.0928 6.17579 39.6777 5.31251 39.6777C4.78126 39.6777 4.36622 39.7939 3.98438 40.043Z" fill="#95D5B2"/>
<path d="M15.9707 39.96C15.124 40.375 14.6094 41.2549 14.6094 42.2676C14.6094 43.3467 15.0908 44.1104 16.1035 44.625C16.834 44.9902 16.9336 45.0068 21.333 44.957C25.2178 44.9072 25.8818 44.874 26.3467 44.625C27.6084 43.9277 28.123 42.1182 27.3594 41.0059C27.1436 40.6904 26.7119 40.2588 26.4131 40.0596C25.8652 39.6777 25.7656 39.6777 21.1836 39.6777C17.1992 39.6777 16.4355 39.7275 15.9707 39.96Z" fill="#95D5B2"/>
<path d="M15.8047 47.9785C14.1943 48.9746 14.1943 51.4648 15.8047 52.4609C16.3193 52.7764 16.6514 52.793 21.0508 52.793C25.0518 52.793 25.8486 52.7598 26.3301 52.5273C28.04 51.7139 28.1895 49.1406 26.5791 48.0449L25.9814 47.6465H21.167C16.6514 47.6465 16.3193 47.6631 15.8047 47.9785Z" fill="#95D5B2"/>
<path d="M16.1035 55.8145C15.0908 56.3291 14.6094 57.0928 14.6094 58.1719C14.6094 58.8027 14.709 59.1846 15.0078 59.6162C15.7549 60.7119 16.0039 60.7617 21.2168 60.7617C25.7656 60.7617 25.8652 60.7617 26.4131 60.3799C27.376 59.7324 27.7578 58.9854 27.6914 57.9727C27.6084 56.9766 27.2266 56.3623 26.3799 55.8643C25.8652 55.5654 25.4668 55.5322 21.333 55.4824C16.9336 55.4326 16.834 55.4492 16.1035 55.8145Z" fill="#95D5B2"/>
</svg>
