<?xml version="1.0" standalone="no"?>
<!DOCTYPE svg PUBLIC "-//W3C//DTD SVG 20010904//EN"
 "http://www.w3.org/TR/2001/REC-SVG-20010904/DTD/svg10.dtd">
<svg version="1.0" xmlns="http://www.w3.org/2000/svg"
 width="512.000000pt" height="512.000000pt" viewBox="0 0 512.000000 512.000000"
 preserveAspectRatio="xMidYMid meet">

<g transform="translate(0.000000,512.000000) scale(0.100000,-0.100000)"
fill="#000000" stroke="none">
<path d="M2375 4793 c-921 -80 -1711 -724 -1963 -1603 -68 -235 -87 -373 -86
-635 0 -249 16 -372 78 -598 206 -746 807 -1347 1553 -1553 224 -61 349 -77
598 -78 242 -1 343 11 559 65 621 155 1161 592 1453 1174 90 178 171 439 209
670 27 164 25 505 -4 675 -85 500 -304 918 -659 1261 -369 356 -836 571 -1343
618 -107 10 -303 12 -395 4z m490 -337 c202 -36 347 -83 524 -167 399 -191
708 -500 901 -901 253 -528 253 -1132 -1 -1658 -461 -957 -1602 -1358 -2558
-899 -400 192 -709 501 -901 901 -84 176 -129 318 -167 528 -24 133 -24 467 0
600 38 210 83 352 167 528 122 254 284 463 495 640 291 244 638 394 1025 441
107 14 408 6 515 -13z"/>
<path d="M3460 3669 c-14 -5 -222 -206 -462 -447 l-438 -437 -432 431 c-238
238 -443 437 -455 443 -31 16 -99 14 -132 -4 -66 -34 -100 -106 -86 -183 6
-32 61 -92 443 -475 l437 -437 -442 -443 c-243 -243 -447 -455 -453 -470 -34
-92 27 -194 127 -213 74 -14 83 -6 550 459 l443 442 437 -437 c474 -473 459
-460 550 -443 49 9 109 69 118 118 17 91 30 76 -443 549 l-437 438 442 442
c476 478 465 464 449 553 -17 91 -127 149 -216 114z"/>
</g>
</svg>
