<svg width="80" height="80" viewBox="0 0 80 80" fill="none" xmlns="http://www.w3.org/2000/svg">
<path d="M69.27 18.23C69.5028 18.4622 69.6875 18.7381 69.8135 19.0418C69.9396 19.3456 70.0045 19.6712 70.0045 20C70.0045 20.3289 69.9396 20.6545 69.8135 20.9582C69.6875 21.2619 69.5028 21.5378 69.27 21.77L34.27 56.77C34.0378 57.0028 33.7619 57.1875 33.4582 57.3136C33.1544 57.4396 32.8288 57.5045 32.5 57.5045C32.1711 57.5045 31.8455 57.4396 31.5418 57.3136C31.2381 57.1875 30.9622 57.0028 30.73 56.77L13.23 39.27C12.7606 38.8006 12.4968 38.1639 12.4968 37.5C12.4968 36.8361 12.7606 36.1994 13.23 35.73C13.6994 35.2606 14.3361 34.9969 15 34.9969C15.6639 34.9969 16.3006 35.2606 16.77 35.73L32.5 51.465L65.73 18.23C65.9622 17.9972 66.2381 17.8125 66.5418 17.6865C66.8455 17.5604 67.1711 17.4955 67.5 17.4955C67.8288 17.4955 68.1544 17.5604 68.4581 17.6865C68.7619 17.8125 69.0378 17.9972 69.27 18.23Z" fill="#3A3A3A"/>
</svg>
