<svg width="30" height="30" viewBox="0 0 30 30" fill="none" xmlns="http://www.w3.org/2000/svg">
<path fill-rule="evenodd" clip-rule="evenodd" d="M14.3362 8.71125C14.4233 8.62394 14.5268 8.55467 14.6407 8.50741C14.7545 8.46015 14.8766 8.43582 15 8.43582C15.1233 8.43582 15.2454 8.46015 15.3593 8.50741C15.4732 8.55467 15.5766 8.62394 15.6637 8.71125L26.9137 19.9612C27.0898 20.1373 27.1886 20.376 27.1886 20.625C27.1886 20.874 27.0898 21.1127 26.9137 21.2887C26.7377 21.4648 26.4989 21.5637 26.25 21.5637C26.001 21.5637 25.7623 21.4648 25.5862 21.2887L15 10.7006L4.41371 21.2887C4.23768 21.4648 3.99892 21.5637 3.74996 21.5637C3.50101 21.5637 3.26225 21.4648 3.08621 21.2887C2.91018 21.1127 2.81128 20.874 2.81128 20.625C2.81128 20.376 2.91018 20.1373 3.08621 19.9612L14.3362 8.71125Z" fill="#3A3A3A"/>
</svg>
