<?xml version="1.0" standalone="no"?>
<!DOCTYPE svg PUBLIC "-//W3C//DTD SVG 20010904//EN"
 "http://www.w3.org/TR/2001/REC-SVG-20010904/DTD/svg10.dtd">
<svg version="1.0" xmlns="http://www.w3.org/2000/svg"
 width="512.000000pt" height="512.000000pt" viewBox="0 0 512.000000 512.000000"
 preserveAspectRatio="xMidYMid meet">

<g transform="translate(0.000000,512.000000) scale(0.100000,-0.100000)"
fill="#000000" stroke="none">
<path d="M2168 4833 l-3 -286 -88 -23 c-550 -146 -887 -545 -887 -1048 0 -278
92 -520 267 -707 184 -195 389 -310 788 -439 105 -34 280 -91 390 -127 445
-144 597 -261 636 -487 42 -246 -89 -401 -406 -477 -297 -71 -638 -32 -910
103 -82 41 -213 130 -255 173 -19 19 -38 35 -43 35 -4 0 -118 -104 -252 -231
l-244 -231 64 -60 c89 -83 125 -111 236 -184 177 -117 427 -223 632 -269 l77
-17 0 -279 0 -279 340 0 340 0 2 272 3 273 65 12 c673 121 1068 550 1035 1122
-13 237 -70 419 -184 591 -82 125 -266 289 -418 374 -163 90 -303 144 -705
271 -436 138 -570 197 -675 298 -68 66 -93 125 -100 236 -7 110 16 177 88 256
106 116 282 181 554 205 270 25 554 -29 794 -149 60 -31 82 -37 89 -28 5 7 89
135 185 284 l176 273 -63 35 c-110 61 -248 122 -366 160 -115 37 -371 95 -422
95 -61 0 -58 -12 -58 276 l0 264 -340 0 -340 0 -2 -287z"/>
</g>
</svg>
