<svg width="105" height="105" viewBox="0 0 105 105" fill="none" xmlns="http://www.w3.org/2000/svg">
<g clip-path="url(#clip0_57_90)">
<path d="M0.984375 27.2344C-0.410156 28.6289 -0.410156 76.3711 0.984375 77.7656C2.37891 79.1602 102.621 79.1602 104.016 77.7656C105.41 76.3711 105.41 28.6289 104.016 27.2344C102.621 25.8398 2.37891 25.8398 0.984375 27.2344ZM100.898 52.5V74.6484H52.5H4.10156V52.5V30.3516H52.5H100.898V52.5Z" fill="#95D5B2"/>
<path d="M15.668 36.1758C14.7656 37.6523 12.6328 39.5391 10.9102 40.5234L7.79297 42.3281V52.5V62.7539L10.9102 64.3945C12.6328 65.2969 14.6836 67.2656 15.5859 68.6602L17.2266 71.3672H52.5H87.7734L89.4141 68.6602C90.3164 67.2656 92.3672 65.2969 94.0898 64.3945L97.207 62.7539V52.5V42.3281L94.0898 40.5234C92.3672 39.5391 90.2344 37.6523 89.332 36.1758L87.7734 33.6328H52.5H17.2266L15.668 36.1758ZM87.6914 40.2773C88.6758 41.5898 90.3984 43.1484 91.5469 43.6406C93.4336 44.543 93.5156 44.8711 93.5156 52.5C93.5156 60.1289 93.4336 60.457 91.5469 61.3594C90.3984 61.8516 88.6758 63.4102 87.6914 64.7227L85.8047 67.2656H52.5H19.1953L17.3086 64.7227C16.3242 63.4102 14.6016 61.8516 13.4531 61.3594C11.5664 60.457 11.4844 60.1289 11.4844 52.5C11.4844 44.8711 11.5664 44.543 13.4531 43.6406C14.6016 43.1484 16.3242 41.5898 17.3086 40.2773L19.1953 37.7344H52.5H85.8047L87.6914 40.2773Z" fill="#95D5B2"/>
<path d="M47.9883 41.3438C39.6211 44.9531 37.9805 55.4531 44.707 61.4414C49.957 66.0352 56.7656 65.543 61.4414 60.293C65.7891 55.2891 65.543 48.5625 60.8672 44.0508C56.9297 40.2774 52.5 39.375 47.9883 41.3438ZM58.3242 46.6758C63.5742 52.0078 59.9648 60.7031 52.5 60.7031C47.7422 60.7031 44.2969 57.2578 44.2969 52.5C44.2969 45.0352 52.9922 41.4258 58.3242 46.6758Z" fill="#95D5B2"/>
<path d="M21.7383 47.9883C17.6367 52.0078 20.5078 59.0625 26.25 59.0625C29.6133 59.0625 32.8125 55.8633 32.8125 52.5C32.8125 49.1367 29.6133 45.9375 26.25 45.9375C24.6914 45.9375 22.9688 46.6758 21.7383 47.9883ZM28.3008 52.5C28.3008 53.9766 27.8086 54.6328 26.4141 54.7969C25.3477 54.9609 24.3633 54.5508 24.1172 53.8125C23.2969 51.6797 24.4453 49.875 26.4141 50.2031C27.8086 50.3672 28.3008 51.0234 28.3008 52.5Z" fill="#95D5B2"/>
<path d="M74.2383 47.9883C72.9258 49.2188 72.1875 50.9415 72.1875 52.5001C72.1875 54.0587 72.9258 55.7813 74.2383 57.0118C78.2578 61.1133 85.3125 58.2422 85.3125 52.5001C85.3125 50.9415 84.5742 49.2188 83.2617 47.9883C82.0312 46.6758 80.3086 45.9376 78.75 45.9376C77.1914 45.9376 75.4688 46.6758 74.2383 47.9883ZM80.8008 52.5001C80.8008 53.9766 80.3086 54.6329 78.9141 54.7969C76.9453 55.1251 75.7969 53.3204 76.6172 51.1876C76.8633 50.4493 77.8477 50.0391 78.9141 50.2032C80.3086 50.3672 80.8008 51.0235 80.8008 52.5001Z" fill="#95D5B2"/>
</g>
<defs>
<clipPath id="clip0_57_90">
<rect width="105" height="105" fill="white"/>
</clipPath>
</defs>
</svg>
