<svg width="27" height="30" viewBox="0 0 27 30" fill="none" xmlns="http://www.w3.org/2000/svg">
<g clip-path="url(#clip0_66_161)">
<path d="M2.23759 4.86465C2.12314 4.8871 1.96888 4.94321 1.88926 4.98249C1.58075 5.15084 1.74993 5.6222 2.35204 6.28997C2.54611 6.50321 4.7754 8.57385 7.30325 10.8858C9.83608 13.1977 12.1201 15.2964 12.3789 15.5489C13.0855 16.2335 13.4637 16.5309 13.6229 16.5309C13.7921 16.5309 14.1553 16.2616 14.6231 15.7902C14.8172 15.5938 17.3052 13.2763 20.1515 10.6389C23.0028 8.00148 25.3714 5.77933 25.4212 5.70076C25.471 5.6222 25.5257 5.49314 25.5456 5.40897C25.5904 5.18451 25.3665 4.94882 25.0281 4.86465C24.7096 4.7917 2.58094 4.78609 2.23759 4.86465Z" fill="#3A3A3A" fill-opacity="0.5"/>
<path d="M1.16795 7.37298C1.01369 7.56377 0.973878 7.8219 0.929093 8.84319C0.86938 10.3583 0.874356 22.2322 0.934069 22.4847C1.00373 22.7597 1.0933 22.8326 1.2824 22.7878C1.51627 22.7316 1.95914 22.2322 2.94441 20.9079C3.65102 19.9596 7.10442 15.6163 8.03993 14.4996C8.18921 14.3256 8.21409 14.2471 8.21409 14.0394C8.21409 13.6466 8.0051 13.3773 7.00988 12.4738C5.65638 11.2449 2.28757 8.13614 2.02881 7.86679C1.77005 7.60866 1.35206 7.27197 1.2824 7.27197C1.26249 7.27197 1.21273 7.31687 1.16795 7.37298Z" fill="#3A3A3A" fill-opacity="0.5"/>
<path d="M25.5755 7.53573C25.3814 7.68163 24.9137 8.1081 24.5355 8.47846C23.8737 9.135 21.5001 11.3347 20.266 12.4458C19.2757 13.338 19.0319 13.6466 19.0269 14.0338C19.022 14.2471 19.0468 14.3144 19.2011 14.494C20.0918 15.5489 23.6 19.9708 24.2867 20.8911C25.7447 22.8551 26.1378 23.1637 26.3169 22.4791C26.3916 22.2042 26.3418 8.34378 26.2672 7.88925C26.2174 7.59746 26.088 7.3281 25.9785 7.28882C25.9487 7.2776 25.7695 7.38983 25.5755 7.53573Z" fill="#3A3A3A" fill-opacity="0.5"/>
<path d="M9.3835 15.1505C8.99536 15.3301 8.70177 15.5882 8.14445 16.2335C7.58713 16.8788 2.77524 22.8495 2.54634 23.1806C2.27764 23.5677 2.05371 24.1008 2.05371 24.3646C2.05371 24.6508 2.20797 24.864 2.4717 24.9482C2.73544 25.0267 24.481 25.0267 24.7397 24.9426C25.0234 24.8528 25.2174 24.6171 25.2174 24.3477C25.2174 23.8988 25.0482 23.6631 22.0576 19.9371C19.0471 16.1886 18.6042 15.6724 18.1414 15.3637C17.803 15.1393 17.4 15.0663 17.1761 15.201C17.0118 15.2964 16.5988 15.7509 15.0911 17.4737C14.5188 18.1358 13.9864 18.7082 13.9117 18.7531C13.7426 18.8541 13.5634 18.8541 13.3594 18.7531C13.2101 18.6801 12.3293 17.6981 10.8614 15.9642C10.533 15.577 10.2095 15.2235 10.1399 15.173C9.91594 15.0158 9.69201 15.0102 9.3835 15.1505Z" fill="#3A3A3A" fill-opacity="0.5"/>
</g>
<defs>
<clipPath id="clip0_66_161">
<rect width="25.4776" height="28.7308" fill="white" transform="translate(0.884277 0.538208)"/>
</clipPath>
</defs>
</svg>
