<svg width="27" height="30" viewBox="0 0 27 30" fill="none" xmlns="http://www.w3.org/2000/svg">
<g clip-path="url(#clip0_66_161)">
<path d="M2.23759 4.86471C2.12314 4.88716 1.96888 4.94327 1.88926 4.98255C1.58075 5.1509 1.74993 5.62226 2.35204 6.29003C2.54611 6.50327 4.7754 8.57391 7.30325 10.8858C9.83608 13.1978 12.1201 15.2965 12.3789 15.549C13.0855 16.2336 13.4637 16.531 13.6229 16.531C13.7921 16.531 14.1553 16.2617 14.6231 15.7903C14.8172 15.5939 17.3052 13.2763 20.1515 10.6389C23.0028 8.00154 25.3714 5.77939 25.4212 5.70083C25.471 5.62226 25.5257 5.4932 25.5456 5.40903C25.5904 5.18457 25.3665 4.94889 25.0281 4.86471C24.7096 4.79176 2.58094 4.78615 2.23759 4.86471Z" fill="#556B6C"/>
<path d="M1.16795 7.37298C1.01369 7.56377 0.973878 7.8219 0.929093 8.84319C0.86938 10.3583 0.874356 22.2322 0.934069 22.4847C1.00373 22.7597 1.0933 22.8326 1.2824 22.7878C1.51627 22.7316 1.95914 22.2322 2.94441 20.9079C3.65102 19.9596 7.10442 15.6163 8.03993 14.4996C8.18921 14.3256 8.21409 14.2471 8.21409 14.0394C8.21409 13.6466 8.0051 13.3773 7.00988 12.4738C5.65638 11.2449 2.28757 8.13614 2.02881 7.86679C1.77005 7.60866 1.35206 7.27197 1.2824 7.27197C1.26249 7.27197 1.21273 7.31687 1.16795 7.37298Z" fill="#556B6C"/>
<path d="M25.5755 7.53579C25.3814 7.68169 24.9137 8.10816 24.5355 8.47852C23.8737 9.13507 21.5001 11.3348 20.266 12.4458C19.2757 13.3381 19.0319 13.6467 19.0269 14.0339C19.022 14.2471 19.0468 14.3145 19.2011 14.494C20.0918 15.549 23.6 19.9709 24.2867 20.8911C25.7447 22.8552 26.1378 23.1638 26.3169 22.4792C26.3916 22.2042 26.3418 8.34384 26.2672 7.88931C26.2174 7.59752 26.088 7.32817 25.9785 7.28888C25.9487 7.27766 25.7695 7.38989 25.5755 7.53579Z" fill="#556B6C"/>
<path d="M9.3835 15.1506C8.99536 15.3301 8.70177 15.5883 8.14445 16.2336C7.58713 16.8789 2.77524 22.8495 2.54634 23.1806C2.27764 23.5678 2.05371 24.1009 2.05371 24.3646C2.05371 24.6508 2.20797 24.8641 2.4717 24.9482C2.73544 25.0268 24.481 25.0268 24.7397 24.9426C25.0234 24.8528 25.2174 24.6172 25.2174 24.3478C25.2174 23.8989 25.0482 23.6632 22.0576 19.9372C19.0471 16.1887 18.6042 15.6724 18.1414 15.3638C17.803 15.1393 17.4 15.0664 17.1761 15.2011C17.0118 15.2965 16.5988 15.751 15.0911 17.4737C14.5188 18.1359 13.9864 18.7083 13.9117 18.7531C13.7426 18.8542 13.5634 18.8542 13.3594 18.7531C13.2101 18.6802 12.3293 17.6982 10.8614 15.9642C10.533 15.577 10.2095 15.2235 10.1399 15.173C9.91594 15.0159 9.69201 15.0103 9.3835 15.1506Z" fill="#556B6C"/>
</g>
<defs>
<clipPath id="clip0_66_161">
<rect width="25.4776" height="28.7308" fill="white" transform="translate(0.884277 0.538208)"/>
</clipPath>
</defs>
</svg>
