<svg width="16" height="16" viewBox="0 0 16 16" fill="none" xmlns="http://www.w3.org/2000/svg">
<g clip-path="url(#clip0_101_4)">
<path d="M16 8.04899C16 3.60299 12.418 -0.00100708 7.99999 -0.00100708C3.57999 -7.08003e-06 -0.00201416 3.60299 -0.00201416 8.04999C-0.00201416 12.067 2.92399 15.397 6.74799 16.001V10.376H4.71799V8.04999H6.74999V6.27499C6.74999 4.25799 7.94499 3.14399 9.77199 3.14399C10.648 3.14399 11.563 3.30099 11.563 3.30099V5.28099H10.554C9.56099 5.28099 9.25099 5.90199 9.25099 6.53899V8.04899H11.469L11.115 10.375H9.24999V16C13.074 15.396 16 12.066 16 8.04899Z" fill="#3A3A3A"/>
</g>
<defs>
<clipPath id="clip0_101_4">
<rect width="16" height="16" fill="white"/>
</clipPath>
</defs>
</svg>
