<svg width="79" height="66" viewBox="0 0 79 66" fill="none" xmlns="http://www.w3.org/2000/svg">
<path d="M20.1413 0.0309677C10.3678 0.823601 2.73563 7.23809 0.701404 16.3975C0.25785 18.379 0.211965 22.078 0.609634 24.1183C1.14496 26.9072 2.33796 29.7402 3.89805 31.986C5.07576 33.674 6.71232 35.3033 22.772 50.6864C39.6271 66.8327 38.6176 65.9666 40.0706 65.5703C40.6366 65.4089 42.579 63.5887 56.0539 50.6864C72.1136 35.3033 73.7501 33.674 74.9278 31.986C76.4879 29.7402 77.6809 26.9072 78.2163 24.1183C78.6139 22.078 78.5681 18.379 78.1245 16.3975C76.4268 8.73529 70.6606 2.80519 62.9672 0.750214C60.9177 0.207108 59.5411 0.0456467 57.1551 0.0456467C52.689 0.0309677 48.4982 1.30799 44.8427 3.78865C43.2826 4.8455 40.8201 7.13534 40.0247 8.26558C39.7341 8.69126 39.4588 9.02887 39.413 9.02887C39.3671 9.02887 39.0918 8.69126 38.8012 8.28026C37.9905 7.12066 35.528 4.83082 33.9832 3.78865C31.536 2.12999 28.5994 0.926353 25.6322 0.368568C24.1333 0.0896759 21.4261 -0.071785 20.1413 0.0309677ZM24.4392 5.15375C27.7582 5.71153 30.8172 7.25277 33.2491 9.60133C34.6103 10.9224 35.4669 12.126 36.4916 14.2104C37.4858 16.192 37.7917 16.5589 38.7706 16.8378C39.5353 17.058 40.4836 16.8378 41.0801 16.3387C41.2636 16.1626 41.8296 15.2085 42.3343 14.2104C43.3591 12.126 44.2156 10.9224 45.5768 9.60133C48.7582 6.51885 52.7655 4.93357 57.3386 4.93357C64.6038 4.93357 70.9053 9.57197 72.8936 16.4121C73.8266 19.5974 73.4595 23.8982 71.9912 27.0247C70.7829 29.6081 70.8135 29.5787 54.6008 45.1526L39.413 59.7576L24.2251 45.1526C8.01239 29.5787 8.04299 29.6081 6.83468 27.0247C5.73345 24.6761 5.22871 21.6523 5.47343 18.9515C6.11582 12.2141 11.3161 6.63628 18.2753 5.22714C19.9272 4.88954 22.6956 4.86018 24.4392 5.15375Z" fill="#3A3A3A"/>
</svg>
