<svg width="28" height="27" viewBox="0 0 28 27" fill="none" xmlns="http://www.w3.org/2000/svg">
<g clip-path="url(#clip0_66_175)">
<path d="M12.6213 0.472086C9.08001 0.983721 6.40423 3.40888 5.67063 6.78056C5.57564 7.20522 5.5598 7.52243 5.53869 9.14432L5.5123 11.0169L5.13231 11.0425C4.30372 11.0936 3.59123 11.6462 3.31151 12.4546C3.20068 12.7667 3.20068 12.8383 3.20068 18.8245C3.20068 24.2069 3.21124 24.9078 3.28513 25.1585C3.45401 25.7162 3.90789 26.2227 4.45677 26.4734L4.7576 26.6116H13.5977H22.4378L22.7386 26.4734C23.2928 26.2227 23.7467 25.7111 23.9103 25.1483C23.9894 24.8976 23.9947 24.2222 23.9842 18.7273L23.9683 12.5876L23.7678 12.1988C23.4353 11.5388 22.802 11.0988 22.1106 11.0425L21.7781 11.0169V9.27223C21.7781 7.10801 21.7042 6.59125 21.2451 5.42984C20.5484 3.66981 19.0706 2.1042 17.3185 1.26C16.0624 0.66139 15.3129 0.487434 13.8352 0.466969C13.2547 0.456736 12.7111 0.461853 12.6213 0.472086ZM14.5055 3.99214C16.1943 4.30424 17.556 5.5424 18.0626 7.22057C18.1365 7.47638 18.1576 7.80895 18.1734 9.27734L18.1998 11.0323H13.6505H9.10112L9.12751 9.32851C9.14862 7.78848 9.16445 7.59406 9.26473 7.22057C9.71861 5.6038 11.0803 4.35029 12.7533 4.00237C13.2072 3.90516 14.0199 3.90516 14.5055 3.99214ZM13.9407 15.8979C15.1177 16.1077 15.8618 17.177 15.5821 18.2463C15.4713 18.6607 15.3077 18.9166 14.933 19.244L14.6374 19.5049L14.648 20.9068C14.648 21.6794 14.6321 22.4059 14.6057 22.5134C14.5002 22.9329 14.1307 23.2092 13.6769 23.2092C13.3497 23.2092 13.1016 23.0915 12.8905 22.8357L12.7269 22.6362L12.7005 21.0859L12.6741 19.5356L12.3152 19.1775C11.7822 18.6403 11.5869 18.1133 11.703 17.5096C11.8719 16.604 12.5686 15.9951 13.603 15.8467C13.6188 15.8416 13.7719 15.8672 13.9407 15.8979Z" fill="#556B6C"/>
</g>
<defs>
<clipPath id="clip0_66_175">
<rect width="27.0217" height="26.1958" fill="white" transform="translate(0.112305 0.461426)"/>
</clipPath>
</defs>
</svg>
