<svg width="21" height="27" viewBox="0 0 21 27" fill="none" xmlns="http://www.w3.org/2000/svg">
<path d="M9.62133 0.472086C6.08001 0.983721 3.40423 3.40888 2.67063 6.78056C2.57564 7.20522 2.5598 7.52243 2.53869 9.14432L2.5123 11.0169L2.13231 11.0425C1.30372 11.0936 0.591231 11.6462 0.311515 12.4546C0.200684 12.7667 0.200684 12.8383 0.200684 18.8245C0.200684 24.2069 0.211239 24.9078 0.285126 25.1585C0.454012 25.7162 0.907892 26.2227 1.45677 26.4734L1.7576 26.6116H10.5977H19.4378L19.7386 26.4734C20.2928 26.2227 20.7467 25.7111 20.9103 25.1483C20.9894 24.8976 20.9947 24.2222 20.9842 18.7273L20.9683 12.5876L20.7678 12.1988C20.4353 11.5388 19.802 11.0988 19.1106 11.0425L18.7781 11.0169V9.27223C18.7781 7.10801 18.7042 6.59125 18.2451 5.42984C17.5484 3.66981 16.0706 2.1042 14.3185 1.26C13.0624 0.66139 12.3129 0.487434 10.8352 0.466969C10.2547 0.456736 9.71105 0.461853 9.62133 0.472086ZM11.5055 3.99214C13.1943 4.30424 14.556 5.5424 15.0626 7.22057C15.1365 7.47638 15.1576 7.80895 15.1734 9.27734L15.1998 11.0323H10.6505H6.10112L6.12751 9.32851C6.14862 7.78848 6.16445 7.59406 6.26473 7.22057C6.71861 5.6038 8.08025 4.35029 9.75327 4.00237C10.2072 3.90516 11.0199 3.90516 11.5055 3.99214ZM10.9407 15.8979C12.1177 16.1077 12.8618 17.177 12.5821 18.2463C12.4713 18.6607 12.3077 18.9166 11.933 19.244L11.6374 19.5049L11.648 20.9068C11.648 21.6794 11.6321 22.4059 11.6057 22.5134C11.5002 22.9329 11.1307 23.2092 10.6769 23.2092C10.3497 23.2092 10.1016 23.0915 9.89049 22.8357L9.72688 22.6362L9.7005 21.0859L9.67411 19.5356L9.31523 19.1775C8.78218 18.6403 8.58691 18.1133 8.70302 17.5096C8.8719 16.604 9.56855 15.9951 10.603 15.8467C10.6188 15.8416 10.7719 15.8672 10.9407 15.8979Z" fill="#3A3A3A" fill-opacity="0.5"/>
</svg>
