<svg width="85" height="53" viewBox="0 0 85 53" fill="none" xmlns="http://www.w3.org/2000/svg">
<path d="M10.0439 0.501991C9.77832 0.618202 9.37988 0.900429 9.18066 1.11625C8.73242 1.6143 0 23.7276 0 24.375C0 25.0557 0.381836 25.8858 0.879883 26.2842C1.12891 26.4668 2.98828 27.2803 5.01367 28.0938C8.93164 29.6377 9.69531 29.8037 10.5254 29.2725C10.9404 28.9903 10.9736 29.0235 13.3975 30.5342C14.7422 31.3809 16.1699 32.294 16.5518 32.543L17.2324 33.0078L16.917 33.6885C16.4521 34.751 16.4854 36.3448 17.0332 37.4239C17.7803 38.918 19.374 39.9473 20.9346 39.9473C21.5156 39.9473 21.5488 39.9805 21.665 40.5616C22.0303 42.5205 24.1055 44.2637 26.0811 44.2637C26.4629 44.2637 26.5459 44.3633 26.7119 44.9942C27.1768 46.8203 28.7539 48.2149 30.5801 48.3975L31.6094 48.4971L31.7422 49.128C32.207 51.3526 34.2656 52.8965 36.5234 52.6807C37.9512 52.5479 38.8311 52.0332 40.1426 50.5225L40.6738 49.8916L41.9521 50.8213C42.7158 51.3692 43.5791 51.8506 44.127 52C46.8496 52.7969 49.7881 51.0537 50.3691 48.2979C50.4854 47.7998 50.5186 47.7832 51.0166 47.9327C52.5107 48.3643 54.4697 47.8496 55.6152 46.7373C56.4121 45.9737 57.1094 44.5957 57.1094 43.7989V43.2676H58.0723C59.5498 43.2676 60.5293 42.8526 61.6084 41.7901C62.4717 40.9102 63.0859 39.7481 63.0859 38.9678C63.0859 38.752 63.3184 38.7022 64.4639 38.7022C65.5596 38.7022 65.9746 38.6192 66.5391 38.3203C68.6475 37.208 69.7598 34.834 69.1787 32.6758L68.9297 31.7793L70.7891 30.584C73.8604 28.5918 73.5781 28.708 74.292 29.1563C75.3379 29.8037 75.9023 29.6875 79.9863 28.0772C82.0117 27.2803 83.8545 26.4834 84.0703 26.3174C84.5684 25.9356 85 25.0225 85 24.375C85 23.7774 81.8125 15.626 81.3975 15.1778C80.7832 14.4971 79.3555 15.0284 79.3555 15.958C79.3555 16.1739 80.0693 18.1661 80.9326 20.3741C81.8125 22.5821 82.4932 24.4082 82.4766 24.4248C82.3271 24.5411 75.9189 26.9981 75.7861 26.9981C75.6367 26.9981 74.2422 23.5616 67.6348 6.79398L67.1035 5.44926L70.5068 4.10453C72.3828 3.35746 73.9434 2.77641 73.9766 2.79301C73.9932 2.82621 74.7734 4.76859 75.7031 7.12601C77.4297 11.4756 77.6621 11.8907 78.4922 11.8907C78.957 11.8907 79.6875 11.1934 79.6875 10.7452C79.6875 10.2139 76.2012 1.54789 75.8193 1.11625C75.3711 0.634804 74.541 0.269569 73.8936 0.269569C73.1465 0.269569 65.9082 3.19144 65.3604 3.72269C64.8955 4.17094 64.5469 5.10062 64.6133 5.74809C64.6631 6.09672 64.4473 6.21293 62.5049 6.9268C59.6328 7.97269 59.1846 8.0225 55.9639 7.55766L53.3076 7.17582L52.876 7.57426C52.3447 8.0723 52.3281 8.78617 52.8428 9.28422C53.1416 9.59965 53.6396 9.73246 55.9307 10.0645C59.2842 10.5459 60.1807 10.4629 63.3848 9.25101C65.5762 8.43754 65.5928 8.43754 65.7422 8.78617C65.8086 8.98539 67.4189 13.0362 69.2949 17.7842C71.1709 22.5157 72.6816 26.417 72.665 26.417C72.6484 26.4336 71.4531 27.2139 70.0088 28.1436L67.3691 29.8203L66.1904 28.9571C65.5264 28.4922 63.2852 26.8321 61.1934 25.2881C59.1016 23.7442 57.1592 22.3496 56.877 22.1836C56.4287 21.9346 56.1631 21.918 54.6689 22.0674C50.668 22.4659 46.6504 21.0381 43.4795 18.0664C41.2383 15.9746 40.4248 16.0245 37.4863 18.4151C35.1953 20.2745 32.8047 21.3536 30.9453 21.3536C29.916 21.3536 29.2021 21.1211 28.2559 20.4903C27.1104 19.6934 27.2432 19.4278 29.75 17.6348C32.4395 15.709 34.8301 13.7168 37.8516 10.878C39.1797 9.63285 40.4912 8.50394 40.7568 8.37113C41.6533 7.92289 42.2842 7.90629 44.9238 8.32133C48.2275 8.83598 48.377 8.83598 48.792 8.30473C49.207 7.79008 49.2402 7.29203 48.8916 6.79398C48.5928 6.37894 48.5928 6.37894 45.1064 5.83109C42.7656 5.46586 42.1514 5.43266 41.3711 5.58207C40.0098 5.83109 38.9307 6.41215 37.5859 7.64066C36.9385 8.23832 36.374 8.68656 36.3242 8.65336C36.291 8.60355 35.6602 8.42094 34.9297 8.23832C33.3193 7.83988 30.8623 7.62406 26.6123 7.47465C23.4414 7.35844 23.4082 7.35844 21.8809 6.74418C20.4697 6.19633 20.3369 6.11332 20.3867 5.73148C20.4531 5.18363 19.9883 4.05473 19.5234 3.60648C19.0254 3.12504 11.7539 0.269569 11.0732 0.269569C10.7744 0.286171 10.3262 0.38578 10.0439 0.501991ZM14.5098 4.08793L17.8965 5.43266L17.3652 6.79398C10.8574 23.2959 9.36328 26.9981 9.23047 26.9981C9.08105 26.9981 2.65625 24.5411 2.52344 24.4248C2.47363 24.3916 10.9902 2.7598 11.0566 2.7598C11.0898 2.7598 12.6338 3.35746 14.5098 4.08793ZM24.1553 9.84867C28.7539 10.0479 32.2568 10.2637 33.2529 10.4297C34.2158 10.5957 34.332 10.6455 34.166 10.8614C33.6846 11.4424 29.7002 14.6299 27.791 15.958C25.5166 17.5518 25.0684 18.1495 25.0684 19.5938C25.0684 21.0713 25.9814 22.2002 28.0068 23.2129C28.8535 23.628 29.3184 23.7276 30.4971 23.794C33.502 23.9766 36.0088 22.8311 40.4248 19.295L40.8232 18.9795L41.8857 19.9756C43.9941 21.9512 46.6006 23.3789 49.4561 24.126C50.8008 24.4912 51.4482 24.5577 53.5566 24.5743L56.0635 24.5909L60.9941 28.2266C63.7002 30.2354 66.0742 32.045 66.2568 32.2774C67.8008 34.2364 65.8086 37.0088 63.4844 36.1289C63.252 36.0293 61.7578 34.9668 60.1973 33.7715C58.6367 32.5762 57.1592 31.5137 56.9102 31.4141C56.0303 31.0821 55.1338 31.9287 55.3828 32.8916C55.4492 33.1573 56.2959 33.9209 57.8066 35.083C59.085 36.0625 60.2305 37.0752 60.3633 37.3243C61.1436 38.835 59.8984 40.7774 58.1553 40.7774C57.209 40.7774 57.1592 40.7442 54.1045 38.42C52.4111 37.1416 51.3818 36.461 51.1162 36.461C50.2695 36.4776 49.6885 37.3741 50.0371 38.1543C50.1367 38.4034 51.0996 39.2666 52.2119 40.1133C53.3076 40.96 54.2871 41.7901 54.4033 41.9893C54.5195 42.1885 54.6025 42.7364 54.6191 43.2178C54.6191 43.8985 54.5361 44.1807 54.1875 44.5957C53.3408 45.5918 52.1455 45.8741 51.083 45.3262C50.7842 45.1768 49.6387 44.3467 48.5264 43.5C46.0195 41.5743 45.8701 41.4912 45.1895 41.8399C44.5918 42.1553 44.3594 42.7696 44.625 43.3506C44.7246 43.5664 45.4883 44.2803 46.3018 44.9278C47.5303 45.9073 47.8125 46.2061 47.9121 46.6709C48.0781 47.6172 47.8457 48.4307 47.2148 49.0284C46.5508 49.6592 45.7041 49.8584 44.8408 49.6094C44.1104 49.377 42.4004 48.1319 42.4668 47.8828C42.5 47.7832 42.666 47.501 42.8486 47.2686C43.6953 46.1895 43.9609 44.1641 43.4131 42.8858C42.7822 41.375 41.0059 40.1133 39.5117 40.1133H38.7646L38.5654 39.2666C38.1338 37.4737 36.4902 36.0459 34.6641 35.8467L33.7676 35.7637L33.502 34.8174C32.9707 33.0411 31.3271 31.7129 29.501 31.6133C28.7539 31.5635 28.7373 31.5469 28.5547 30.833C28.3057 29.8536 28.0068 29.2891 27.3594 28.6582C26.0479 27.3467 23.9561 26.9649 22.3291 27.712C21.5654 28.0772 20.9678 28.625 19.3906 30.3848L18.8096 31.0489L17.6641 30.3018C17.0332 29.8868 15.5391 28.9239 14.3271 28.1768L12.1357 26.7989L12.4512 26.0352C12.7666 25.2383 19.0088 9.43363 19.2578 8.78617C19.4072 8.43754 19.4072 8.43754 21.0342 9.1016C22.4287 9.68266 22.877 9.78226 24.1553 9.84867ZM25.3672 30.2354C25.6328 30.4512 25.9482 30.8662 26.0645 31.1485C26.4463 32.0616 26.1807 32.6094 24.2217 34.9004C23.2256 36.0791 22.2295 37.125 22.0303 37.2412C21.5322 37.5235 20.6689 37.5069 20.0879 37.208C19.4736 36.8926 19.0918 36.1621 19.0918 35.3155C19.0918 34.7178 19.2412 34.4688 20.3867 33.1075C21.084 32.2608 22.0469 31.1651 22.5117 30.7002C23.2754 29.8868 23.4082 29.8203 24.1055 29.8203C24.6865 29.8203 25.002 29.92 25.3672 30.2354ZM30.6631 34.7178C31.1279 35.2491 31.2773 35.7969 31.1445 36.5108C31.0117 37.1914 27.7744 41.0596 26.9609 41.5078C26.2305 41.8897 25.4004 41.7569 24.6865 41.1094C24.2051 40.6944 24.1553 40.545 24.1553 39.7315C24.1553 38.835 24.1553 38.835 25.749 36.9424C27.6914 34.668 28.04 34.3194 28.6543 34.1534C29.3516 33.9707 30.248 34.2198 30.6631 34.7178ZM35.6436 39.0176C36.3242 39.7647 36.4072 40.794 35.8262 41.5411C35.0127 42.6036 32.5059 45.4424 32.1572 45.6748C31.709 45.9903 30.6631 45.9903 30.0654 45.6748C29.5508 45.4258 29.0527 44.5293 29.0527 43.8985C29.0527 43.6827 29.2686 43.168 29.5342 42.753C30.2148 41.7237 32.8877 38.752 33.3691 38.4864C34.0664 38.1211 35.0293 38.3536 35.6436 39.0176ZM40.6074 43.168C41.3545 43.9151 41.4209 44.9444 40.79 45.8575C39.9766 47.0196 37.3037 49.9414 36.9219 50.0909C35.3613 50.6719 33.6846 49.1944 34.1992 47.667C34.3984 47.0694 37.6689 43.1348 38.2334 42.8194C38.4326 42.7032 38.9307 42.6202 39.3291 42.6036C39.9268 42.6036 40.1426 42.7032 40.6074 43.168Z" fill="#95D5B2"/>
</svg>
