<svg width="25" height="25" viewBox="0 0 25 25" fill="none" xmlns="http://www.w3.org/2000/svg">
<path fill-rule="evenodd" clip-rule="evenodd" d="M2.94596 0.797116C3.21934 0.524138 3.54763 0.312379 3.90905 0.17587C4.27047 0.0393613 4.65677 -0.0187791 5.04236 0.00530173C5.42795 0.0293826 5.80401 0.135135 6.14564 0.31555C6.48727 0.495965 6.78665 0.746924 7.02395 1.0518L9.82855 4.65481C10.3426 5.31572 10.5238 6.17663 10.3207 6.98911L9.46606 10.4109C9.42188 10.5881 9.42426 10.7737 9.47299 10.9498C9.52172 11.1258 9.61514 11.2863 9.74418 11.4155L13.5831 15.2545C13.7126 15.3838 13.8733 15.4773 14.0496 15.5261C14.2259 15.5748 14.4119 15.5771 14.5893 15.5326L18.0095 14.6779C18.4105 14.5777 18.829 14.5699 19.2334 14.6552C19.6378 14.7404 20.0175 14.9165 20.3438 15.1701L23.9469 17.9731C25.2421 18.9809 25.3609 20.8949 24.2015 22.0527L22.586 23.6683C21.4298 24.8245 19.7017 25.3323 18.0908 24.7651C13.9678 23.3144 10.2243 20.954 7.13801 17.8591C4.04325 14.7733 1.68288 11.0303 0.231979 6.90786C-0.333629 5.29854 0.174168 3.5689 1.33038 2.41269L2.94596 0.797116Z" fill="#556B6C"/>
</svg>
