<svg width="50" height="43" viewBox="0 0 50 43" fill="none" xmlns="http://www.w3.org/2000/svg">
<path d="M28.4281 0.658768C27.8025 0.893382 27.431 1.17687 26.3655 2.27174C25.1338 3.51324 24.8894 3.95315 24.8894 4.93071C24.8894 6.14288 24.7525 5.96692 30.7645 11.9887L36.2095 17.4435H19.2293C2.3957 17.4435 2.23929 17.4435 1.71141 17.639C0.988013 17.9127 0.352599 18.597 0.137535 19.34C0.0104523 19.7799 -0.0188746 20.2295 0.0104523 21.5297C0.0397791 22.9472 0.0691059 23.2209 0.254842 23.6119C0.499233 24.1593 1.07599 24.7654 1.60388 25.0196C1.98512 25.2151 2.33705 25.2151 19.1315 25.264L36.2584 25.3128L30.7841 30.7872C24.7525 36.8187 24.8796 36.6623 24.8894 37.8452C24.8991 38.7836 25.1924 39.292 26.5023 40.5726C27.8709 41.9216 28.2229 42.1269 29.22 42.1269C29.8261 42.1171 30.0411 42.078 30.4419 41.863C31.0969 41.511 49.5337 23.0645 49.8074 22.4779C50.0811 21.8914 50.0616 20.7574 49.7585 20.1709C49.4457 19.5452 30.9111 1.03024 30.3539 0.776075C29.8456 0.551236 28.8778 0.492582 28.4281 0.658768Z" fill="#3A3A3A"/>
</svg>
