<svg width="65" height="65" viewBox="0 0 65 65" fill="none" xmlns="http://www.w3.org/2000/svg">
<g clip-path="url(#clip0_116_3371)">
<path d="M47.7019 42.0225C51.6356 36.6546 53.3974 29.9995 52.635 23.3884C51.8725 16.7773 48.642 10.6979 43.5896 6.36645C38.5373 2.03497 32.0358 -0.22913 25.3859 0.0271052C18.7359 0.28334 12.4279 3.04101 7.72389 7.74842C3.01985 12.4558 0.266691 18.7658 0.0152144 25.4159C-0.236262 32.0661 2.03249 38.5659 6.36758 43.6152C10.7027 48.6644 16.7844 51.8906 23.396 52.6483C30.0076 53.406 36.6615 51.6394 42.0265 47.7019H42.0225C42.1444 47.8644 42.2744 48.0187 42.4206 48.169L58.0612 63.8097C58.823 64.572 59.8564 65.0004 60.934 65.0008C62.0117 65.0012 63.0453 64.5734 63.8076 63.8117C64.5699 63.0499 64.9984 62.0166 64.9988 60.9389C64.9992 59.8613 64.5714 58.8276 63.8097 58.0653L48.169 42.4247C48.0238 42.2776 47.8676 42.1418 47.7019 42.0184V42.0225ZM48.75 26.4062C48.75 29.3405 48.172 32.2459 47.0492 34.9568C45.9263 37.6677 44.2805 40.1308 42.2057 42.2056C40.1308 44.2805 37.6677 45.9263 34.9568 47.0492C32.2459 48.172 29.3405 48.75 26.4062 48.75C23.472 48.75 20.5665 48.172 17.8557 47.0492C15.1448 45.9263 12.6816 44.2805 10.6068 42.2056C8.53201 40.1308 6.88618 37.6677 5.7633 34.9568C4.64042 32.2459 4.06249 29.3405 4.06249 26.4062C4.06249 20.4803 6.41655 14.7971 10.6068 10.6068C14.7971 6.41655 20.4803 4.06248 26.4062 4.06248C32.3322 4.06248 38.0154 6.41655 42.2057 10.6068C46.3959 14.7971 48.75 20.4803 48.75 26.4062Z" fill="#3A3A3A"/>
</g>
<defs>
<clipPath id="clip0_116_3371">
<rect width="65" height="65" fill="white"/>
</clipPath>
</defs>
</svg>
