<svg width="30" height="30" viewBox="0 0 30 30" fill="none" xmlns="http://www.w3.org/2000/svg">
<path d="M11.3558 1.88089C8.3265 2.12112 5.52572 3.71487 3.73861 6.21682C3.24643 6.90237 2.64291 8.09768 2.37924 8.90628C0.586269 14.3496 3.52768 20.1973 8.9476 21.9668C11.6019 22.8399 14.3382 22.6289 16.846 21.3692C17.3617 21.1114 18.2406 20.5489 18.6038 20.25L18.7796 20.1035L22.7347 24.0528C26.18 27.4922 26.7191 28.0078 26.9417 28.0723C27.6214 28.2715 28.2718 27.6211 28.0726 26.9356C28.0081 26.7188 27.4925 26.1797 24.0531 22.7344L20.1038 18.7793L20.2503 18.6035C20.3324 18.5039 20.555 18.1934 20.7484 17.9004C22.5355 15.2578 22.9808 11.8653 21.9378 8.82425C20.4027 4.36526 16.0492 1.51175 11.3558 1.88089ZM13.7581 3.89651C15.4339 4.22464 16.9163 5.01565 18.1351 6.24026C19.3656 7.46487 20.1507 8.93557 20.4906 10.6465C20.6371 11.3789 20.6312 12.8965 20.4847 13.6817C20.1624 15.4102 19.3773 16.8926 18.1351 18.1348C16.8812 19.3828 15.4339 20.1504 13.682 20.4903C12.9496 20.6309 11.3558 20.6309 10.6468 20.4903C8.93588 20.1446 7.45932 19.3594 6.24057 18.1348C5.0101 16.9102 4.2308 15.4453 3.8851 13.7285C3.74447 13.0137 3.74447 11.3614 3.8851 10.6465C4.45346 7.79885 6.35189 5.47268 8.98861 4.3887C9.59213 4.1426 10.471 3.90237 11.1038 3.81448C11.6781 3.73245 13.1781 3.77932 13.7581 3.89651Z" fill="#3A3A3A"/>
</svg>
