<svg width="30" height="30" viewBox="0 0 30 30" fill="none" xmlns="http://www.w3.org/2000/svg">
<path d="M18.3691 7.08984L21.709 10.4297L20.8711 11.2617L20.0391 12.0996L18.1055 10.166L16.1719 8.23242V15.3691V22.5H15H13.8281V15.3691V8.23242L11.8945 10.166L9.96094 12.0996L9.12891 11.2617L8.29102 10.4297L11.6309 7.08984C13.4648 5.25 14.9824 3.75 15 3.75C15.0176 3.75 16.5352 5.25 18.3691 7.08984Z" fill="#3A3A3A"/>
<path d="M26.7188 24.1406V27.1875H15H3.28125V24.1406V21.0938H4.45312H5.625V22.9688V24.8438H15H24.375V22.9688V21.0938H25.5469H26.7188V24.1406Z" fill="#3A3A3A"/>
</svg>
