<svg width="85" height="85" viewBox="0 0 85 85" fill="none" xmlns="http://www.w3.org/2000/svg">
<path fill-rule="evenodd" clip-rule="evenodd" d="M40.6193 27.3381C40.8661 27.0907 41.1592 26.8945 41.4819 26.7606C41.8046 26.6267 42.1505 26.5577 42.4999 26.5577C42.8493 26.5577 43.1953 26.6267 43.518 26.7606C43.8407 26.8945 44.1338 27.0907 44.3806 27.3381L55.0056 37.9631C55.2525 38.2101 55.4484 38.5033 55.5821 38.8259C55.7158 39.1486 55.7845 39.4945 55.7845 39.8437C55.7845 40.193 55.7158 40.5388 55.5821 40.8615C55.4484 41.1842 55.2525 41.4774 55.0056 41.7244C54.7586 41.9713 54.4654 42.1672 54.1427 42.3009C53.82 42.4345 53.4742 42.5033 53.1249 42.5033C52.7757 42.5033 52.4298 42.4345 52.1072 42.3009C51.7845 42.1672 51.4913 41.9713 51.2443 41.7244L45.1562 35.6309V55.7812C45.1562 56.4857 44.8763 57.1613 44.3782 57.6595C43.88 58.1576 43.2044 58.4375 42.4999 58.4375C41.7955 58.4375 41.1198 58.1576 40.6217 57.6595C40.1235 57.1613 39.8437 56.4857 39.8437 55.7812V35.6309L33.7556 41.7244C33.2568 42.2231 32.5803 42.5033 31.8749 42.5033C31.1696 42.5033 30.4931 42.2231 29.9943 41.7244C29.4955 41.2256 29.2153 40.5491 29.2153 39.8437C29.2153 39.1384 29.4955 38.4619 29.9943 37.9631L40.6193 27.3381Z" fill="#3A3A3A"/>
<path d="M23.4069 17.7544C28.7166 13.1757 35.4888 10.647 42.5 10.625C56.7906 10.625 68.6534 21.25 69.9444 34.9509C78.4019 36.1462 85 43.2278 85 51.9191C85 61.4603 77.0419 69.0625 67.3997 69.0625H20.0866C9.07375 69.0625 0 60.3819 0 49.5019C0 40.1359 6.72562 32.3797 15.6294 30.4141C16.3891 25.8294 19.3375 21.2606 23.4069 17.7544ZM26.8759 21.7759C22.8544 25.245 20.7506 29.4259 20.7506 32.6984V35.0784L18.3866 35.3387C10.965 36.1516 5.3125 42.245 5.3125 49.5019C5.3125 57.2953 11.8469 63.75 20.0866 63.75H67.3997C74.2688 63.75 79.6875 58.3737 79.6875 51.9191C79.6875 45.4591 74.2688 40.0828 67.3997 40.0828H64.7434V37.4266C64.7487 25.6328 54.8675 15.9375 42.5 15.9375C36.7618 15.9604 31.2207 18.0329 26.8759 21.7812V21.7759Z" fill="#3A3A3A"/>
</svg>
